<?xml version="1.0" encoding="UTF-8" standalone="no"?>
<!-- Created with Inkscape (http://www.inkscape.org/) -->

<svg
   width="64"
   height="64"
   viewBox="0 0 16.933333 16.933333"
   version="1.1"
   id="svg8"
   inkscape:version="1.2.2 (b0a8486541, 2022-12-01)"
   sodipodi:docname="contentdroplets-embed-icon.svg"
   xmlns:inkscape="http://www.inkscape.org/namespaces/inkscape"
   xmlns:sodipodi="http://sodipodi.sourceforge.net/DTD/sodipodi-0.dtd"
   xmlns="http://www.w3.org/2000/svg"
   xmlns:svg="http://www.w3.org/2000/svg"
   xmlns:rdf="http://www.w3.org/1999/02/22-rdf-syntax-ns#"
   xmlns:cc="http://creativecommons.org/ns#"
   xmlns:dc="http://purl.org/dc/elements/1.1/">
  <defs
     id="defs2">
    <rect
       x="7.5391113"
       y="4.5199951"
       width="57.240039"
       height="47.159998"
       id="rect1116" />
    <marker
       inkscape:stockid="Arrow1Lstart"
       orient="auto"
       refY="0.0"
       refX="0.0"
       id="marker1178"
       style="overflow:visible"
       inkscape:isstock="true">
      <path
         id="path1176"
         d="M 0.0,0.0 L 5.0,-5.0 L -12.5,0.0 L 5.0,5.0 L 0.0,0.0 z "
         style="fill-rule:evenodd;stroke:black;stroke-width:1pt;stroke-opacity:1"
         transform="scale(0.8) translate(12.5,0)" />
    </marker>
    <marker
       inkscape:stockid="Arrow1Lstart"
       orient="auto"
       refY="0.0"
       refX="0.0"
       id="Arrow1Lstart"
       style="overflow:visible"
       inkscape:isstock="true">
      <path
         id="path900"
         d="M 0.0,0.0 L 5.0,-5.0 L -12.5,0.0 L 5.0,5.0 L 0.0,0.0 z "
         style="fill-rule:evenodd;stroke:black;stroke-width:1pt;stroke-opacity:1"
         transform="scale(0.8) translate(12.5,0)" />
    </marker>
  </defs>
  <sodipodi:namedview
     id="base"
     pagecolor="#ffffff"
     bordercolor="#666666"
     borderopacity="1.0"
     inkscape:pageopacity="0.0"
     inkscape:pageshadow="2"
     inkscape:zoom="5"
     inkscape:cx="-13.7"
     inkscape:cy="6.9"
     inkscape:document-units="px"
     inkscape:current-layer="g937"
     showgrid="false"
     units="px"
     width="64px"
     inkscape:pagecheckerboard="false"
     inkscape:snap-text-baseline="false"
     showguides="false"
     inkscape:guide-bbox="true"
     inkscape:window-width="1920"
     inkscape:window-height="1008"
     inkscape:window-x="1920"
     inkscape:window-y="0"
     inkscape:window-maximized="1"
     inkscape:showpageshadow="2"
     inkscape:deskcolor="#d1d1d1">
    <sodipodi:guide
       position="8.4808406,22.749442"
       orientation="1,0"
       id="guide890"
       inkscape:locked="false" />
    <sodipodi:guide
       position="1.905,8.4666665"
       orientation="0,1"
       id="guide892"
       inkscape:locked="false" />
    <sodipodi:guide
       position="3.5671502,6.1539247"
       orientation="1,0"
       id="guide894"
       inkscape:locked="false" />
    <sodipodi:guide
       position="13.429966,4.3703496"
       orientation="1,0"
       id="guide896"
       inkscape:locked="false" />
    <sodipodi:guide
       position="7.9512683,10.664054"
       orientation="1,0"
       id="guide1887"
       inkscape:locked="false" />
    <sodipodi:guide
       position="8.9989648,9.3357244"
       orientation="1,0"
       id="guide1889"
       inkscape:locked="false" />
    <sodipodi:guide
       position="10.514383,15.416106"
       orientation="0,1"
       id="guide1909"
       inkscape:locked="false" />
    <sodipodi:guide
       position="8.9989648,2.3547916"
       orientation="0,1"
       id="guide1911"
       inkscape:locked="false" />
    <sodipodi:guide
       position="0.92604166,14.47271"
       orientation="0,1"
       id="guide1915"
       inkscape:locked="false" />
  </sodipodi:namedview>
  <metadata
     id="metadata5">
    <rdf:RDF>
      <cc:Work
         rdf:about="">
        <dc:format>image/svg+xml</dc:format>
        <dc:type
           rdf:resource="http://purl.org/dc/dcmitype/StillImage" />
        <dc:title />
      </cc:Work>
    </rdf:RDF>
  </metadata>
  <g
     inkscape:label="Ebene 1"
     inkscape:groupmode="layer"
     id="layer1"
     transform="translate(0,-280.06666)">
    <g
       id="g861"
       transform="translate(0,3e-6)" />
    <g
       id="g905">
      <g
         id="g937"
         transform="matrix(1.3983822,0,0,1.3983822,-3.5034622,-111.61156)"
         style="stroke-width:0.71511215">
        <path
           d="m 5.5175392,284.62723 a 0.76061104,0.76061104 0 0 1 0.7606101,-0.76062 h 4.5636667 a 0.76061104,0.76061104 0 0 1 0.760612,0.76062 v 3.04244 a 0.76061104,0.76061104 0 0 1 -0.760612,0.7606 H 6.2781493 a 0.76061104,0.76061104 0 0 1 -0.7606101,-0.7606 z m 4.3735129,0.38029 a 0.19015275,0.19015275 0 0 0 -0.190146,0.19015 v 1.44249 l -0.435831,-0.43621 a 0.19039387,0.19039387 0 1 0 -0.269255,0.26926 l 0.76061,0.76061 a 0.19015275,0.19015275 0 0 0 0.2692579,0 l 0.76061,-0.76061 a 0.19039416,0.19039416 0 0 0 -0.269256,-0.26926 l -0.43583,0.43621 v -1.44249 a 0.19015275,0.19015275 0 0 0 -0.1901459,-0.19015 m -3.0196251,0.76442 h 0.021306 l 0.5430758,1.23181 h 0.2943565 l 0.5400328,-1.23219 h 0.02131 v 1.51779 h 0.408064 v -2.28145 h -0.456366 l -0.6503238,1.48091 H 7.5780223 L 6.9277009,285.0079 H 6.4682913 v 2.28145 h 0.4031235 z"
           id="path1189"
           style="stroke-width:0.271961;fill:#951b81;fill-opacity:1" />
      </g>
    </g>
  </g>
  <style
     id="style817"
     type="text/css">
	.st0{fill:#FFFFFF;}
	.st1{fill:none;}
	.st2{fill:#3E5389;}
</style>
</svg>
